<svg xmlns="http://www.w3.org/2000/svg" viewBox="0 0 443.89 539.34">
  <defs>
    <style>
      .cls-1 {
        fill: none;
      }

      .cls-1,
      .cls-2,
      .cls-3 {
        stroke: #126168;
        stroke-miterlimit: 10;
      }

      .cls-2,
      .cls-3 {
        fill: #126168;
      }

      .cls-3 {
        stroke-width: 3px;
      }

      .cls-4 {
        fill: #126168;
      }
    </style>
  </defs>
  <title>Logo lineas grises fondo</title>
  <g id="Capa_3" data-name="Capa 3">
    <path class="cls-1"
      d="M357.05,495.49c40,16.15,81.81,19.51,123.64,22.61a831.09,831.09,0,0,0,123.24-.25c34.5-2.56,68.94-5.85,102.2-16.26,5.51-1.72,10.85-4,16.68-6.1.1,1.28.26,2.38.26,3.49,0,43.69.33,87.39-.12,131.08-.86,83.09-60.59,156.46-141.73,174.74-96.85,21.81-192.28-35.33-217.9-131.21A191.6,191.6,0,0,1,357.2,628c-.82-43-.3-86-.3-129C356.9,497.94,357,496.92,357.05,495.49ZM453.44,636a41,41,0,0,0,27.47-11c10-9.21,16-20.83,19.83-33.63,1.83-6.11-.88-11.26-6.15-12.79-5.66-1.64-9.81,1.32-12.45,7.6-2.82,6.73-5.64,13.71-9.88,19.55-10.78,14.83-27.18,14.85-38.06,0-4.27-5.81-7-12.82-9.87-19.55-2.65-6.31-6.78-9.25-12.44-7.64-5.44,1.55-8.59,7.17-5.94,13.17,4.17,9.47,8.51,19.1,14.41,27.51C428.12,630.33,439.68,635.84,453.44,636Zm173.86,0a39.56,39.56,0,0,0,22.17-7.09c13.5-9.61,20.72-23.41,25.07-38.88a9.15,9.15,0,0,0-6.76-11.52c-5.39-1.38-9.37,1.42-11.94,7-3.55,7.7-6.77,15.89-12,22.39-9.83,12.27-25,12-34.71-.4-4.83-6.19-8-13.79-11.23-21.09-2.83-6.48-7.09-9.58-12.83-7.72-5.33,1.73-8.2,7.27-5.56,13.43,3.81,8.89,7.8,17.93,13.25,25.85C600.75,629.56,612.38,635.81,627.3,636Zm-93.1,34.76c.59-2.65.91-4.29,1.31-5.91,4.51-18.06,9.09-36.11,13.52-54.19,1.66-6.8-1.2-12-6.93-13.33-5.45-1.25-10.07,2-11.74,8.66q-9.42,37.26-18.69,74.56c-2.16,8.71,3.71,14.69,12.32,12.62q17.93-4.34,35.81-8.88c6.76-1.71,10.19-6.61,8.73-12.2s-6.6-8.17-13.51-6.48Z"
      transform="translate(-318.06 -270.59)" />
    <path class="cls-2"
      d="M356.59,471.33c4.29-2.32,8.4-5.05,12.88-6.87,19.33-7.87,39.75-11.38,60.27-14.23,12.71-1.77,25.5-3,38.28-4.09a16.38,16.38,0,0,1,8.67,2q28,15.18,55.64,30.88c5.37,3.07,9.94,3.06,15.31,0,18.58-10.6,37.33-20.89,56.07-31.19a12,12,0,0,1,6.2-1.79c31.78,2.38,63.39,6.06,93.93,15.74,6.72,2.13,13,5.56,19.52,8.39.06.78.11,1.55.17,2.33-3.49,2.15-6.73,5.16-10.53,6.29-15,4.49-30,9.52-45.45,12.3-57.76,10.43-116.11,11.38-174.58,8.73-35.45-1.6-70.69-5.09-105.2-13.77-7.92-2-15.61-5-23.27-7.88-2.77-1-5.14-3.11-7.69-4.71Z"
      transform="translate(-318.06 -270.59)" />
    <path class="cls-3"
      d="M463.39,324.9c17.16,9.53,33.88,18.79,50.58,28.11,5.36,3,12.75,4.93,15.39,9.53,2.76,4.82,1,12.27,1,18.57.05,24.46,0,48.92,0,74.05a38.23,38.23,0,0,1-3.91-1.6c-20-11.1-40.09-22.17-60-33.43-1.59-.9-3.44-3.14-3.46-4.77-.19-29.61-.13-59.21-.1-88.82A8.83,8.83,0,0,1,463.39,324.9Z"
      transform="translate(-318.06 -270.59)" />
    <path class="cls-2"
      d="M617.11,324.81c0,28.17-.33,55.55.2,82.91.15,7.81-2,12.08-9.1,15.73-18,9.17-35.38,19.37-53,29.15-1.59.88-3.23,1.67-5.37,2.78-.11-2.27-.26-3.91-.26-5.56,0-27.55.06-55.1-.1-82.65,0-3.76,1.15-5.78,4.45-7.58,19.52-10.63,38.9-21.5,58.33-32.27C613.56,326.59,614.92,325.93,617.11,324.81Z"
      transform="translate(-318.06 -270.59)" />
    <path class="cls-3"
      d="M473.54,308l37.72-21c8.53-4.74,17-9.57,25.64-14.11,1.51-.79,4.09-1.14,5.47-.39,20.87,11.41,41.63,23,62.41,34.61.43.24.88.45,1.86.94-1.71,1.1-2.63,1.76-3.61,2.31-19.9,11.06-39.77,22.16-59.75,33.06-1.6.88-4.41,1.19-5.9.38-20.74-11.3-41.34-22.84-62-34.33A21.81,21.81,0,0,1,473.54,308Z"
      transform="translate(-318.06 -270.59)" />
    <path class="cls-4" d="M337.21,551.7v72.06c-12.09-8-18.13-18.61-19-32.2C317.12,575.19,322.43,561.72,337.21,551.7Z"
      transform="translate(-318.06 -270.59)" />
    <path class="cls-4"
      d="M742.78,623.35a24.09,24.09,0,0,1-.29-2.43c0-22.71,0-45.42,0-69.22,11.66,7.5,17.61,17.44,19.11,30.31C763.64,599.57,756.65,615.38,742.78,623.35Z"
      transform="translate(-318.06 -270.59)" />
    <path class="cls-2"
      d="M453.44,636c-13.76-.19-25.32-5.7-33.08-16.75-5.9-8.41-10.24-18-14.41-27.51-2.65-6,.5-11.62,5.94-13.17,5.66-1.61,9.79,1.33,12.44,7.64,2.83,6.73,5.6,13.74,9.87,19.55,10.88,14.82,27.28,14.8,38.06,0,4.24-5.84,7.06-12.82,9.88-19.55,2.64-6.28,6.79-9.24,12.45-7.6,5.27,1.53,8,6.68,6.15,12.79-3.84,12.8-9.83,24.42-19.83,33.63A40.91,40.91,0,0,1,453.44,636Z"
      transform="translate(-318.06 -270.59)" />
    <path class="cls-2"
      d="M627.3,636c-14.92-.22-26.55-6.47-34.52-18-5.45-7.92-9.44-17-13.25-25.85-2.64-6.16.23-11.7,5.56-13.43,5.74-1.86,10,1.24,12.83,7.72,3.18,7.3,6.4,14.9,11.23,21.09,9.69,12.42,24.88,12.67,34.71.4,5.21-6.5,8.43-14.69,12-22.39,2.57-5.56,6.55-8.36,11.94-7a9.15,9.15,0,0,1,6.76,11.52c-4.35,15.47-11.57,29.27-25.07,38.88A39.56,39.56,0,0,1,627.3,636Z"
      transform="translate(-318.06 -270.59)" />
    <path class="cls-2"
      d="M534.2,670.79,555,665.64c6.91-1.69,12,.76,13.51,6.48s-2,10.49-8.73,12.2q-17.88,4.53-35.81,8.88c-8.61,2.07-14.48-3.91-12.32-12.62q9.26-37.3,18.69-74.56c1.67-6.62,6.29-9.91,11.74-8.66,5.73,1.31,8.59,6.53,6.93,13.33-4.43,18.08-9,36.13-13.52,54.19C535.11,666.5,534.79,668.14,534.2,670.79Z"
      transform="translate(-318.06 -270.59)" />
  </g>
</svg>